<svg width="20" height="20" viewBox="0 0 20 20" fill="none" xmlns="http://www.w3.org/2000/svg">
<path d="M13.6382 10.7093C14.618 9.93842 15.3332 8.8813 15.6842 7.68501C16.0353 6.48872 16.0047 5.21276 15.5968 4.03464C15.1889 2.85652 14.424 1.83483 13.4084 1.11171C12.3928 0.388591 11.177 0 9.93031 0C8.68357 0 7.46784 0.388591 6.45224 1.11171C5.43664 1.83483 4.67168 2.85652 4.26379 4.03464C3.85589 5.21276 3.82534 6.48872 4.17639 7.68501C4.52743 8.8813 5.24262 9.93842 6.22244 10.7093C4.54349 11.382 3.07854 12.4976 1.98378 13.9374C0.889017 15.3771 0.205476 17.0869 0.00602836 18.8846C-0.00840872 19.0159 0.00314656 19.1487 0.0400342 19.2754C0.0769218 19.4022 0.138419 19.5205 0.221016 19.6235C0.387827 19.8316 0.630452 19.9648 0.895516 19.994C1.16058 20.0231 1.42637 19.9458 1.63441 19.779C1.84246 19.6122 1.97572 19.3695 2.00488 19.1045C2.22433 17.1508 3.1559 15.3465 4.62159 14.0362C6.08727 12.7259 7.98433 12.0016 9.9503 12.0016C11.9163 12.0016 13.8133 12.7259 15.279 14.0362C16.7447 15.3465 17.6763 17.1508 17.8957 19.1045C17.9229 19.3501 18.0401 19.5769 18.2246 19.7411C18.4092 19.9054 18.6481 19.9955 18.8951 19.994H19.0051C19.2671 19.9638 19.5065 19.8314 19.6713 19.6254C19.836 19.4195 19.9127 19.1568 19.8846 18.8946C19.6842 17.0918 18.997 15.3776 17.8966 13.9357C16.7962 12.4937 15.3241 11.3784 13.6382 10.7093V10.7093ZM9.93031 9.99973C9.13964 9.99973 8.36672 9.76527 7.70931 9.326C7.05189 8.88672 6.53949 8.26237 6.23692 7.53189C5.93434 6.8014 5.85517 5.9976 6.00943 5.22212C6.16368 4.44665 6.54442 3.73433 7.10351 3.17524C7.6626 2.61615 8.37492 2.23541 9.1504 2.08115C9.92587 1.9269 10.7297 2.00607 11.4602 2.30865C12.1906 2.61122 12.815 3.12362 13.2543 3.78103C13.6935 4.43845 13.928 5.21137 13.928 6.00204C13.928 7.06229 13.5068 8.07912 12.7571 8.82883C12.0074 9.57855 10.9906 9.99973 9.93031 9.99973Z" fill="#AFBCC6" fill-opacity="0.5"/>
</svg>
