<svg width="20" height="20" viewBox="0 0 20 20" fill="none" xmlns="http://www.w3.org/2000/svg">
<path d="M18.3393 7.31637L4.33927 0.314359C3.78676 0.0392893 3.16289 -0.0586374 2.55271 0.0339303C1.94252 0.126498 1.37573 0.405055 0.929602 0.831623C0.483474 1.25819 0.179724 1.81201 0.0597636 2.41757C-0.0601964 3.02313 0.00947219 3.65097 0.259271 4.21548L2.65927 9.58702C2.71373 9.71689 2.74177 9.85631 2.74177 9.99714C2.74177 10.138 2.71373 10.2774 2.65927 10.4073L0.259271 15.7788C0.055971 16.2356 -0.0299735 16.7361 0.00924794 17.2346C0.0484693 17.7331 0.211613 18.2139 0.483853 18.6333C0.756092 19.0527 1.1288 19.3974 1.56809 19.6361C2.00739 19.8748 2.49935 19.9999 2.99927 20C3.4675 19.9953 3.92876 19.886 4.34927 19.6799L18.3493 12.6779C18.8459 12.428 19.2633 12.045 19.555 11.5717C19.8466 11.0983 20.0011 10.5532 20.0011 9.99714C20.0011 9.44108 19.8466 8.89597 19.555 8.4226C19.2633 7.94924 18.8459 7.56625 18.3493 7.31637H18.3393ZM17.4493 10.8874L3.44927 17.8894C3.26543 17.9777 3.059 18.0077 2.85766 17.9753C2.65631 17.9429 2.46968 17.8497 2.32278 17.7082C2.17589 17.5667 2.07575 17.3837 2.0358 17.1836C1.99585 16.9836 2.018 16.7761 2.09927 16.589L4.48927 11.2175C4.52021 11.1458 4.54692 11.0723 4.56927 10.9974H11.4593C11.7245 10.9974 11.9788 10.892 12.1664 10.7044C12.3539 10.5169 12.4593 10.2624 12.4593 9.99714C12.4593 9.73184 12.3539 9.47742 12.1664 9.28983C11.9788 9.10223 11.7245 8.99685 11.4593 8.99685H4.56927C4.54692 8.92199 4.52021 8.84851 4.48927 8.77678L2.09927 3.40524C2.018 3.21815 1.99585 3.01068 2.0358 2.81064C2.07575 2.61061 2.17589 2.42757 2.32278 2.28607C2.46968 2.14458 2.65631 2.05139 2.85766 2.019C3.059 1.98661 3.26543 2.01658 3.44927 2.10487L17.4493 9.10688C17.6131 9.19082 17.7505 9.31835 17.8465 9.47543C17.9425 9.63251 17.9933 9.81304 17.9933 9.99714C17.9933 10.1812 17.9425 10.3618 17.8465 10.5188C17.7505 10.6759 17.6131 10.8034 17.4493 10.8874Z" fill="#FDFDFE"/>
</svg>
